:SAMPLES-PER-SECOND 30
:FULLY-SPECIFIED
:DEGREES
113
root  15.7034 18.1934 -0.244933 -82.8245 74.7276 -134.257
RightUpLeg  -55.6452 7.59127 14.0578
RightLeg  111.108 2.09027 23.0815
RightFoot  7.84913 0.0904549 -0.502297
RightToes  1.86264e-009 -3.18055e-015 8.94531e-016
Spine  48.1145 -5.57357 23.6483
Spine1  -21.1804 4.71687 -17.377
HEad  -57.3309 -8.36419 8.78581
LeftShoulder1  0 -2.69403e-036 -1.28585e-037
LeftArm  10.1135 -29.3626 -103.813
LeftForeArm  28.8736 -7.29784 -1.21006
LeftHand  -4.12821 -0.796619 48.4368
RightShoulder  -2.48481e-017 0 -8.08114e-019
RightArm  -0.432829 44.1696 56.4245
RightForeArm  1.43238 16.8861 -16.6448
RightHand  4.00768 -15.7406 -28.2237
LeftUpLeg  -15.3099 -8.86041 14.5095
LeftLeg  59.5867 -18.641 -12.4422
LeftFoot  33.2658 2.49198 -5.53061
LeftToes  -3.27418e-010 -1.10613e-010 -1.08532e-012
114
root  16.3098 18.5286 -0.052866 -89.7342 76.9542 -141.303
RightUpLeg  -54.0456 6.18009 12.474
RightLeg  109.135 3.28236 22.3365
RightFoot  7.73605 -0.0227287 0.109391
RightToes  1.86264e-009 -3.18055e-015 8.94531e-016
Spine  48.2091 -6.24272 22.0281
Spine1  -20.4677 3.47601 -18.4176
HEad  -57.7758 -8.09107 10.6524
LeftShoulder1  0 -2.69403e-036 -1.28585e-037
LeftArm  11.5231 -29.6094 -103.72
LeftForeArm  28.8768 -6.33531 -1.91666
LeftHand  -4.24234 -0.847391 49.257
RightShoulder  -2.48481e-017 0 -8.08114e-019
RightArm  -11.0804 49.9979 54.6222
RightForeArm  8.4726 10.151 -8.71159
RightHand  3.41976 -14.8637 -25.0482
LeftUpLeg  -18.2728 -7.24194 12.978
LeftLeg  63.8111 -16.2946 -9.58319
LeftFoot  27.209 2.22876 -5.78791
LeftToes  -3.27418e-010 -1.10613e-010 -1.08532e-012
115
root  16.8865 18.8735 0.152732 -100.098 78.8503 -151.856
RightUpLeg  -52.5881 4.75092 10.7911
RightLeg  107.099 4.25924 22.0494
RightFoot  7.82267 -0.0554791 0.286321
RightToes  1.86264e-009 -3.18055e-015 8.94531e-016
Spine  48.2478 -7.08798 20.4488
Spine1  -19.8256 2.05175 -19.4561
HEad  -58.0124 -7.88068 12.476
LeftShoulder1  0 -2.69403e-036 -1.28585e-037
LeftArm  13.1411 -29.9512 -103.36
LeftForeArm  28.6067 -5.64672 -2.62033
LeftHand  -4.32982 -0.883273 49.8927
RightShoulder  -2.48481e-017 0 -8.08114e-019
RightArm  -12.0773 53.7379 54.7267
RightForeArm  3.54552 4.41237 -6.64181
RightHand  2.93328 -14.143 -21.7713
LeftUpLeg  -22.0442 -6.31255 11.3412
LeftLeg  69.7579 -14.8834 -8.18505
LeftFoot  23.3137 2.07747 -6.03928
LeftToes  -3.27418e-010 -1.10613e-010 -1.08532e-012
116
root  17.4364 19.1995 0.392591 -114.669 80.072 -166.668
RightUpLeg  -51.2117 3.42946 9.13121
RightLeg  105.04 5.12158 22.0396
RightFoot  8.00185 -0.0962635 0.502197
RightToes  1.86264e-009 -3.18055e-015 8.94531e-016
Spine  48.3607 -8.03136 18.7277
Spine1  -19.5456 0.39475 -20.1169
HEad  -58.2334 -7.52398 14.0512
LeftShoulder1  0 -2.69403e-036 -1.28585e-037
LeftArm  14.7103 -30.0537 -102.535
LeftForeArm  28.1819 -5.38836 -3.24046
LeftHand  -4.40464 -0.911435 50.4436
RightShoulder  -2.48481e-017 0 -8.08114e-019
RightArm  -11.3978 55.58 56.2801
RightForeArm  -1.19493 1.57933 -5.96106
RightHand  2.54623 -13.5966 -18.5146
LeftUpLeg  -26.6329 -6.3576 9.76429
LeftLeg  76.7195 -14.0686 -8.09989
LeftFoot  23.5554 2.24771 -6.49514
LeftToes  -3.27418e-010 -1.10613e-010 -1.08532e-012
